Coordinates
version=1
nRows=14
nColumns=63
inDegrees=yes

Units are S.I. units (second, meters, Newtons, ...)
If the header above contains a line with 'inDegrees', this indicates whether rotational values are in degrees (yes) or radians (no).

endheader
time	pelvis_tilt	pelvis_list	pelvis_rotation	pelvis_tx	pelvis_ty	pelvis_tz	hip_flexion_r	hip_adduction_r	hip_rotation_r	knee_angle_r	knee_angle_r_beta	ankle_angle_r	subtalar_angle_r	mtp_angle_r	hip_flexion_l	hip_adduction_l	hip_rotation_l	knee_angle_l	knee_angle_l_beta	ankle_angle_l	subtalar_angle_l	mtp_angle_l	L5_S1_Flex_Ext	L5_S1_Lat_Bending	L5_S1_axial_rotation	L4_L5_Flex_Ext	L4_L5_Lat_Bending	L4_L5_axial_rotation	L3_L4_Flex_Ext	L3_L4_Lat_Bending	L3_L4_axial_rotation	L2_L3_Flex_Ext	L2_L3_Lat_Bending	L2_L3_axial_rotation	L1_L2_Flex_Ext	L1_L2_Lat_Bending	L1_L2_axial_rotation	L1_T12_Flex_Ext	L1_T12_Lat_Bending	L1_T12_axial_rotation	Abs_r3	Abs_r2	Abs_r1	Abs_t1	Abs_t2	neck_flexion	neck_bending	neck_rotation	arm_flex_r	arm_add_r	arm_rot_r	elbow_flex_r	pro_sup_r	wrist_flex_r	wrist_dev_r	arm_flex_l	arm_add_l	arm_rot_l	elbow_flex_l	pro_sup_l	wrist_flex_l	wrist_dev_l
3.285714	-2.678303	-2.838022	91.974501	0.221113	1.002165	0.485707	3.390237	-4.003706	-13.173253	12.742659	0.222401	21.305297	11.729189	0.000000	0.610071	2.561194	-16.342440	4.711673	0.082234	24.057408	12.640976	0.000000	-0.011647	-0.047833	0.701400	-0.021630	-0.063618	0.745237	-0.019135	-0.116302	0.745237	-0.013311	-0.116302	0.613725	-0.010815	-0.097541	0.569887	-0.006655	-0.074094	0.526050	-0.083193	-0.541099	3.900975	0.000000	0.000000	22.578992	-3.043492	-5.587521	11.334013	-15.544093	-23.339458	123.200268	82.421817	-15.820780	18.362904	10.273905	-18.721330	-4.748194	131.896376	88.441360	-16.523493	-11.194201
3.306122	-2.581664	-2.921849	91.573654	0.222168	1.002323	0.487935	3.704638	-3.904592	-13.017328	12.763702	0.222769	21.245534	12.140100	0.000000	0.764434	2.462404	-16.697754	4.560442	0.079595	23.774604	12.540844	0.000000	-0.005969	-0.039417	0.844795	-0.011084	-0.052425	0.897595	-0.009806	-0.095839	0.897595	-0.006821	-0.095839	0.739195	-0.005542	-0.080379	0.686396	-0.003410	-0.061057	0.633596	-0.042633	-0.445894	4.698495	0.000000	0.000000	22.288972	-3.241502	-6.044511	11.268791	-15.848606	-23.750157	125.525734	82.965816	-14.780795	20.126580	10.681217	-19.223620	-7.278065	132.315225	88.924043	-16.393982	-8.537918
3.326531	-2.504302	-2.975231	91.297641	0.223067	1.002375	0.489826	3.915718	-3.816258	-12.950963	12.741605	0.222383	21.236878	12.560880	0.000000	0.855019	2.383601	-16.892675	4.384591	0.076526	23.475351	12.409778	0.000000	-0.001756	-0.033531	0.937517	-0.003261	-0.044596	0.996112	-0.002885	-0.081526	0.996112	-0.002007	-0.081526	0.820327	-0.001631	-0.068376	0.761732	-0.001003	-0.051939	0.703138	-0.012544	-0.379306	5.214187	0.000000	0.000000	22.035936	-3.387722	-6.419509	10.616865	-15.999134	-23.972563	127.763967	83.638447	-13.690180	21.820209	10.399519	-19.655519	-9.739946	132.872512	88.308720	-15.544191	-5.220924
3.346939	-2.453295	-2.993742	91.145561	0.223805	1.002318	0.491316	4.014688	-3.747031	-12.975815	12.676186	0.221241	21.287798	12.985105	0.000000	0.873657	2.333180	-16.915058	4.183077	0.073008	23.172446	12.251111	0.000000	0.001179	-0.031228	0.976398	0.002189	-0.041533	1.037423	0.001937	-0.075927	1.037423	0.001347	-0.075927	0.854348	0.001095	-0.063679	0.793324	0.000674	-0.048372	0.732299	0.008420	-0.353254	5.430434	0.000000	0.000000	21.836842	-3.434187	-6.631281	9.525842	-15.980439	-23.862773	129.721303	84.395753	-12.606885	23.353081	9.610270	-20.001308	-11.892384	133.555718	86.959636	-14.033933	-1.703908
3.367347	-2.432336	-2.977287	91.107322	0.224380	1.002164	0.492375	4.005271	-3.698998	-13.035508	12.569307	0.219376	21.395671	13.345758	0.000000	0.822310	2.316973	-16.778186	3.961705	0.069145	22.886339	12.059460	0.000000	0.003155	-0.033310	0.962961	0.005860	-0.044303	1.023146	0.005184	-0.080991	1.023146	0.003606	-0.080991	0.842591	0.002930	-0.067927	0.782406	0.001803	-0.051598	0.722221	0.022538	-0.376815	5.355702	0.000000	0.000000	21.693766	-3.402215	-6.665368	8.154658	-15.777394	-23.322766	131.177172	85.018028	-11.423605	24.526995	8.599859	-20.285452	-13.390446	134.350334	86.122611	-12.930388	1.356953
3.387755	-2.443853	-2.927080	91.159940	0.224803	1.001954	0.493015	3.894893	-3.676591	-13.114434	12.418746	0.216748	21.552270	13.636141	0.000000	0.705383	2.338849	-16.516774	3.722857	0.064976	22.627640	11.847815	0.000000	0.003894	-0.039252	0.905733	0.007232	-0.052205	0.962341	0.006398	-0.095437	0.962341	0.004451	-0.095437	0.792517	0.003616	-0.080043	0.735908	0.002225	-0.060801	0.679300	0.027816	-0.444027	5.037416	0.000000	0.000000	21.616400	-3.283294	-6.425995	6.642526	-15.393109	-22.283900	132.007566	85.358804	-10.198614	25.280661	7.721179	-20.481494	-14.117293	135.116171	85.825913	-12.298424	3.900014
3.408163	-2.499177	-2.857428	91.280350	0.225125	1.001738	0.493286	3.711090	-3.696093	-13.221410	12.232655	0.213500	21.734235	13.886307	0.000000	0.542930	2.410705	-16.136810	3.466062	0.060494	22.368651	11.592062	0.000000	0.004749	-0.050728	0.816550	0.008820	-0.067468	0.867584	0.007802	-0.123339	0.867584	0.005428	-0.123339	0.714481	0.004410	-0.103444	0.663447	0.002714	-0.078577	0.612413	0.033923	-0.573840	4.541406	0.000000	0.000000	21.600337	-3.055247	-5.865102	5.093626	-14.819446	-20.752451	132.141764	85.342000	-8.986510	25.564714	7.259296	-20.559483	-14.057873	135.744135	85.757076	-11.836069	5.956493
3.428571	-2.595332	-2.759825	91.417570	0.225369	1.001565	0.493242	3.466224	-3.752670	-13.263076	12.024542	0.209868	21.919480	14.027022	0.000000	0.332454	2.528890	-15.768000	3.199226	0.055837	22.143736	11.384718	0.000000	0.004287	-0.066431	0.723022	0.007961	-0.088354	0.768211	0.007043	-0.161521	0.768211	0.004899	-0.161521	0.632645	0.003981	-0.135467	0.587456	0.002449	-0.102902	0.542267	0.030620	-0.751483	4.021233	0.000000	0.000000	21.615151	-2.784191	-5.013397	3.552924	-14.072604	-18.831211	131.616906	85.017873	-7.914781	25.351624	7.465890	-20.511437	-13.052187	136.111721	85.787415	-11.818493	7.355576
3.448980	-2.731059	-2.636603	91.572387	0.225531	1.001490	0.492984	3.171283	-3.848895	-13.270245	11.798180	0.205917	22.081921	14.080368	0.000000	0.088923	2.691884	-15.388847	2.933912	0.051206	21.935214	11.194007	0.000000	0.001213	-0.085981	0.636801	0.002252	-0.114354	0.676601	0.001992	-0.209054	0.676601	0.001386	-0.209054	0.557201	0.001126	-0.175332	0.517401	0.000693	-0.133184	0.477601	0.008661	-0.972632	3.541698	0.000000	0.000000	21.641128	-2.480452	-3.875398	2.067879	-13.164150	-16.598435	130.514731	84.497793	-7.040469	24.677944	8.462657	-20.293504	-11.203908	136.158388	85.926187	-12.065362	8.028900
3.469388	-2.898607	-2.499951	91.706999	0.225647	1.001558	0.492563	2.852543	-3.976581	-13.210585	11.556524	0.201699	22.192999	14.034331	0.000000	-0.177699	2.891249	-15.076047	2.662095	0.046462	21.722479	11.081696	0.000000	-0.002586	-0.108583	0.585569	-0.004802	-0.144415	0.622167	-0.004248	-0.264009	0.622167	-0.002955	-0.264009	0.512373	-0.002401	-0.221422	0.475775	-0.001477	-0.168195	0.439177	-0.018468	-1.228312	3.256761	0.000000	0.000000	21.653560	-2.204379	-2.600959	0.623495	-12.145633	-14.171620	128.988414	83.975019	-6.405349	23.688390	10.385912	-19.862673	-8.540548	135.793807	86.167347	-12.554470	7.967140
3.489796	-3.079498	-2.339652	91.848538	0.225671	1.001833	0.492091	2.501507	-4.117657	-13.123206	11.297100	0.197172	22.232064	13.902481	0.000000	-0.456623	3.102605	-14.822795	2.415935	0.042166	21.511928	11.052564	0.000000	-0.009611	-0.131452	0.573217	-0.017848	-0.174832	0.609043	-0.015790	-0.319613	0.609043	-0.010984	-0.319613	0.501565	-0.008925	-0.268058	0.465739	-0.005492	-0.203620	0.429913	-0.068650	-1.487015	3.188062	0.000000	0.000000	21.636154	-1.979425	-1.246515	-0.731803	-11.098755	-11.584509	127.158259	83.661564	-5.945132	22.508533	13.343300	-19.215439	-5.155555	134.952811	86.500429	-13.249472	7.280967
3.510204	-3.268760	-2.155359	92.010780	0.225607	1.002338	0.491635	2.121045	-4.267011	-13.045894	11.021630	0.192364	22.194109	13.708510	0.000000	-0.738723	3.318478	-14.608882	2.209451	0.038562	21.287273	11.086449	0.000000	-0.019596	-0.155159	0.605874	-0.036392	-0.206362	0.643741	-0.032194	-0.377254	0.643741	-0.022396	-0.377254	0.530140	-0.018197	-0.316401	0.492272	-0.011197	-0.240342	0.454405	-0.139972	-1.755192	3.369688	0.000000	0.000000	21.569181	-1.790959	0.063305	-1.979193	-10.097684	-8.879327	125.146537	83.738996	-5.650025	21.182838	17.414019	-18.352110	-1.111416	133.577965	86.885793	-14.187987	6.244191
3.530612	-3.463423	-1.948656	92.181702	0.225471	1.003075	0.491242	1.723959	-4.425388	-12.988316	10.740937	0.187465	22.084010	13.491012	0.000000	-1.022013	3.538097	-14.432803	2.039743	0.035600	21.039771	11.168905	0.000000	-0.030737	-0.180458	0.685224	-0.057082	-0.240009	0.728051	-0.050498	-0.438764	0.728051	-0.035130	-0.438764	0.599571	-0.028543	-0.367989	0.556745	-0.017563	-0.279529	0.513918	-0.219554	-2.041372	3.811013	0.000000	0.000000	21.430455	-1.620660	1.228317	-3.069778	-9.199786	-6.109765	123.082393	84.201316	-5.443799	19.949017	22.582916	-17.292176	3.399293	131.631613	87.322345	-15.200949	5.171181
3.551020	-3.635139	-1.715293	92.351640	0.225257	1.004029	0.490952	1.313386	-4.562476	-12.937399	10.458400	0.182534	21.897827	13.245998	0.000000	-1.305455	3.732364	-14.315927	1.914066	0.033407	20.785291	11.311364	0.000000	-0.042210	-0.203967	0.807337	-0.078389	-0.271276	0.857796	-0.069347	-0.495924	0.857796	-0.048242	-0.495924	0.706420	-0.039196	-0.415929	0.655961	-0.024119	-0.315944	0.605503	-0.301504	-2.307311	4.490166	0.000000	0.000000	21.210331	-1.461797	2.258686	-3.947970	-8.465662	-3.281711	121.040253	84.690152	-5.299084	18.755460	28.753085	-16.040481	8.189845	129.061272	87.687861	-16.298675	4.196185
